<svg width="155" height="236" viewBox="0 0 155 236" fill="none" xmlns="http://www.w3.org/2000/svg">
<path d="M124.993 236C113.457 236 99.5655 229.562 84.6151 217.039C64.2496 200.002 44.2764 173.74 28.3843 143.042C4.33015 96.5636 -5.59757 48.9071 3.11371 21.6243C6.01746 12.517 10.8832 6.15758 17.5148 2.74233C26.3438 -1.81133 37.8803 -0.672916 50.8688 6.00056C63.3078 12.3992 76.7671 23.7442 89.8733 38.7791C90.1872 39.1324 90.148 39.682 89.7948 39.996C89.4416 40.3101 88.8923 40.2708 88.5784 39.9175C61.9737 9.37656 35.055 -4.28445 18.3388 4.31256C12.0997 7.49228 7.54783 13.5377 4.80103 22.2132C-3.79252 49.1034 6.09595 96.2495 29.9539 142.336C58.2066 196.862 97.9567 234.351 124.954 234.351C128.996 234.351 132.763 233.527 136.137 231.76C142.376 228.581 146.928 222.535 149.675 213.86C158.269 186.97 148.38 139.823 124.522 93.7372C117.42 79.9976 109.415 67.0825 100.821 55.345C100.547 54.9525 100.625 54.4029 101.017 54.1281C101.41 53.8533 101.959 53.9318 102.234 54.3244C110.906 66.1404 118.911 79.134 126.092 92.952C150.146 139.392 160.074 187.048 151.323 214.331C148.419 223.438 143.554 229.798 136.922 233.213C133.351 235.097 129.349 236 124.993 236Z" fill="black"/>
</svg>
