<svg width="136" height="207" viewBox="0 0 136 207" fill="none" xmlns="http://www.w3.org/2000/svg">
<path d="M109.61 207C99.4715 207 87.2897 201.339 74.1648 190.371C56.3244 175.433 38.7984 152.396 24.8876 125.507C3.78566 84.7795 -4.89876 42.9911 2.72467 19.0502C5.27891 11.0306 9.56217 5.44828 15.4173 2.42127C28.8565 -4.4583 48.6224 3.48269 69.6851 24.2C70.0387 24.5538 70.0387 25.0649 69.6851 25.4187C69.3314 25.7725 68.8206 25.7725 68.4669 25.4187C47.9544 5.25172 28.8958 -2.61065 16.2032 3.95443C10.7804 6.74557 6.81145 11.974 4.3751 19.5612C-3.13044 43.0697 5.51468 84.3471 26.4202 124.72C51.1374 172.484 85.9143 205.27 109.571 205.27C113.107 205.27 116.369 204.523 119.355 203.03C124.778 200.238 128.747 195.01 131.183 187.423C138.689 163.914 130.044 122.637 109.138 82.2636C102.812 70.0769 95.7383 58.6372 88.1149 48.2982C87.8398 47.905 87.9184 47.3547 88.3114 47.0795C88.7043 46.8043 89.2545 46.8829 89.5296 47.2761C97.2316 57.733 104.344 69.2121 110.71 81.4773C131.812 122.204 140.497 163.993 132.873 187.934C130.319 195.953 126.036 201.536 120.18 204.563C116.958 206.174 113.422 207 109.61 207Z" fill="black"/>
</svg>
