<svg width="34" height="31" viewBox="0 0 34 31" fill="none" xmlns="http://www.w3.org/2000/svg">
<path d="M28.0421 18.7552C26.1355 18.7552 24.4673 19.6691 23.3552 21.0996L11.8762 16.6095C11.8762 16.4506 11.9159 16.3313 11.9159 16.1724C11.9159 15.8943 11.8762 15.6161 11.8365 15.338L23.5935 9.89417C24.6659 11.126 26.2547 11.9207 28.0421 11.9604C31.2991 11.9604 34 9.29814 34 6.00008C34 2.70202 31.3388 0 28.0421 0C24.7851 0 22.0841 2.66229 22.0841 5.96035C22.0841 6.2385 22.1239 6.51664 22.1636 6.79479L10.4066 12.2386C9.33413 11.0068 7.74534 10.2121 5.95795 10.1723C2.70094 10.1723 0 12.8346 0 16.1327C0 19.4307 2.66122 22.1328 5.95795 22.1328C7.8645 22.1328 9.53274 21.2188 10.6449 19.7883L22.1239 24.2785C22.1239 24.4374 22.0841 24.5566 22.0841 24.7156C22.0841 28.0136 24.7453 30.7156 28.0421 30.7156C31.2991 30.7156 34 28.0534 34 24.7553C33.9603 21.4572 31.2991 18.795 28.0421 18.7552Z" fill="black"/>
</svg>
