<svg width="41" height="58" viewBox="0 0 41 58" fill="none" xmlns="http://www.w3.org/2000/svg">
<path d="M39.9645 58C39.925 58 39.8855 58 39.8855 58L19.1772 55.786C19.0587 55.786 18.9401 55.7465 18.8216 55.6674C14.3163 54.9558 8.62551 49.2627 4.47596 41.2765C0.0892889 32.8159 -1.21486 24.5926 1.19584 20.7181L1.23536 20.5995L12.617 0.436393C12.8541 0.00150297 13.3679 -0.117099 13.8026 0.120114C14.2373 0.357327 14.3559 0.871288 14.1187 1.30618L2.7371 21.5483C2.7371 21.5878 2.69758 21.6274 2.69758 21.6274C0.642563 24.8298 2.02575 32.7369 6.01722 40.4463C9.92966 47.9976 15.581 53.6906 19.4539 53.9674C19.5724 53.9674 19.7305 54.0069 19.8096 54.086L40.0436 56.2605C40.5178 56.3 40.8735 56.7349 40.7944 57.2093C40.7549 57.6442 40.3992 58 39.9645 58Z" fill="black"/>
</svg>
