<svg width="276" height="239" viewBox="0 0 276 239" fill="none" xmlns="http://www.w3.org/2000/svg">
<path d="M40.7899 238.139C40.7507 238.139 40.7115 238.139 40.7115 238.139L19.0478 235.787C18.9302 235.787 18.8127 235.748 18.6952 235.67C14.2292 234.964 8.58803 229.321 4.47466 221.404C0.0870556 213.056 -1.20572 204.905 1.18396 201.064L1.22313 200.946L12.5055 180.959C12.5447 180.881 12.5839 180.842 12.6231 180.802L41.3383 150.978C41.3775 150.939 41.4167 150.9 41.4559 150.861L115.027 98.3451L161.566 0.485725C161.684 0.289771 161.841 0.133009 162.076 0.0546274C162.311 -0.0237542 162.546 -0.0237548 162.742 0.0938175C163.173 0.289771 163.369 0.799252 163.173 1.23035C151.381 26.5084 160.705 76.751 186.325 126.21C211.985 175.747 247.752 212.429 275.292 217.485C275.722 217.563 276.036 217.955 275.997 218.426C275.958 218.857 275.566 219.17 275.135 219.209L274.391 219.17C274.351 219.17 274.312 219.17 274.273 219.17L167.482 200.868L81.6103 231.594C81.5711 231.594 81.4927 231.633 81.4536 231.633L40.9074 238.099C40.8683 238.139 40.8291 238.139 40.7899 238.139ZM19.6746 234.141L40.7899 236.414L81.1402 229.948L167.169 199.183C167.325 199.144 167.443 199.105 167.599 199.144L263.735 215.604C237.762 204.199 207.401 170.534 184.876 127.033C162.507 83.8445 152.517 39.99 158.002 12.2821L116.554 99.2856C116.476 99.4032 116.398 99.5208 116.28 99.5992L42.5919 152.232L13.9942 181.9L2.71178 201.887C2.71178 201.926 2.67261 201.965 2.67261 201.965C0.635506 205.14 2.00663 212.978 5.96331 220.62C9.84163 228.106 15.4437 233.749 19.2828 234.023C19.4395 234.023 19.557 234.063 19.6746 234.141Z" fill="black"/>
</svg>
